<svg width="174" height="36" viewBox="0 0 174 36" fill="none" xmlns="http://www.w3.org/2000/svg">
<g filter="url(#filter0_d_1939_5696)">
<path fill-rule="evenodd" clip-rule="evenodd" d="M6.84667 7.67534C6.84667 9.01866 5.76154 10.1079 4.42334 10.1079C3.08513 10.1079 2 9.01866 2 7.67534C2 6.33202 3.08513 5.24277 4.42334 5.24277C5.76154 5.24277 6.84667 6.33202 6.84667 7.67534Z" fill="#9ACA4A"/>
<path fill-rule="evenodd" clip-rule="evenodd" d="M2.28906 12.2105H6.88742V31.0655H2.28906V12.2105Z" fill="white"/>
<path fill-rule="evenodd" clip-rule="evenodd" d="M14.7389 12.5944C15.124 12.4093 15.6227 12.2973 16.167 12.2973H20.4918V13.5525V16.9132H16.4078C15.4859 16.9132 14.7389 17.6631 14.7389 18.5884V25.1951C14.7389 25.8862 15.2961 26.4469 15.984 26.4496H20.4217V31.0655H15.5213C12.5592 31.0655 10.1563 28.6623 10.1413 25.6922H10.1406V5.39566H14.7389V12.5944Z" fill="white"/>
<path fill-rule="evenodd" clip-rule="evenodd" d="M39.2801 23.6593C39.2801 28.1727 35.639 31.8312 31.1475 31.8312C26.6553 31.8312 23.0142 28.1727 23.0142 23.6593V12.21H27.6125V23.6593H27.6132C27.6384 25.5879 29.2106 27.1429 31.1475 27.1429C33.0837 27.1429 34.656 25.5879 34.6811 23.6593H34.6818V12.21H39.2801V23.6593Z" fill="white"/>
<path fill-rule="evenodd" clip-rule="evenodd" d="M46.864 18.5722V31.0656H42.2656V17.5054V17.4884C42.2656 14.5736 44.6046 12.21 47.4885 12.21H47.5049H51.9454V16.8266H48.4777C47.5865 16.8266 46.864 17.6079 46.864 18.5722Z" fill="white"/>
<path fill-rule="evenodd" clip-rule="evenodd" d="M87.9589 19.899C87.9589 15.5051 84.3191 11.9429 79.829 11.9429C75.3347 11.9429 71.6936 15.5051 71.6936 19.899V31.0464H76.2913V19.899C76.3185 18.0223 77.89 16.5076 79.829 16.5076C81.7611 16.5076 83.3327 18.0223 83.3599 19.899V31.0464H87.9589V19.899Z" fill="white"/>
<path fill-rule="evenodd" clip-rule="evenodd" d="M60.6697 19.49C61.9222 19.49 63.1373 19.6334 64.2748 19.8923V18.2348C64.2748 17.4569 63.6604 16.8266 62.9019 16.8266H55.2734V12.21H63.304C66.3797 12.21 68.8731 14.7266 68.8731 17.8298V21.8352V22.2388V30.0658C66.943 31.0813 64.1782 31.6249 61.0718 31.6249C55.1387 31.6249 52.5623 29.0599 52.5623 25.5913C52.5623 22.1227 54.7366 19.49 60.6697 19.49ZM61.4439 23.1287C62.4556 23.1799 63.4468 23.3424 64.2748 23.5999V27.2105C63.3761 27.5212 62.3127 27.7056 61.3317 27.7056C59.0159 27.7056 57.2021 26.9039 57.1388 25.3625C57.0755 23.8211 58.8954 22.9982 61.4439 23.1287Z" fill="white"/>
<path d="M90.7209 31.2166V12.4075H95.354L95.5377 15.7927C96.1704 14.5389 97.0276 13.5985 98.123 12.9716C99.2115 12.3446 100.422 12.0312 101.756 12.0312C103.11 12.0312 104.334 12.3446 105.43 12.9716C106.518 13.5985 107.341 14.5266 107.892 15.7552C108.294 14.9275 108.838 14.2377 109.512 13.6866C110.192 13.1348 110.947 12.7203 111.77 12.445C112.6 12.1691 113.444 12.0312 114.294 12.0312C115.526 12.0312 116.648 12.2818 117.669 12.7831C118.682 13.285 119.492 14.0376 120.097 15.0401C120.696 16.0434 120.996 17.3225 120.996 18.8775V31.2166H115.839V19.893C115.839 18.5135 115.539 17.5356 114.934 16.9592C114.335 16.3821 113.553 16.0939 112.6 16.0939C111.845 16.0939 111.151 16.2817 110.512 16.658C109.872 17.0343 109.369 17.5923 109.001 18.3319C108.641 19.0722 108.457 19.9934 108.457 21.097V31.2166H103.3V19.893C103.3 18.5135 102.994 17.5356 102.375 16.9592C101.763 16.3821 100.973 16.0939 100.021 16.0939C99.3679 16.0939 98.7216 16.2694 98.0821 16.6205C97.4426 16.9715 96.9188 17.5233 96.5038 18.2759C96.0888 19.0278 95.8778 20.0187 95.8778 21.2473V31.2166H90.7209Z" fill="#63C1BF"/>
<path d="M134.896 12.0312C136.808 12.0312 138.481 12.4198 139.923 13.1969C141.366 13.9748 142.495 15.0907 143.311 16.5453C144.128 18 144.536 19.7551 144.536 21.8121C144.536 23.8431 144.128 25.5921 143.311 27.0597C142.495 28.5266 141.366 29.6487 139.923 30.4265C138.481 31.2037 136.808 31.5923 134.896 31.5923C133.011 31.5923 131.344 31.2037 129.889 30.4265C128.433 29.6487 127.297 28.5266 126.48 27.0597C125.664 25.5921 125.256 23.8431 125.256 21.8121C125.256 19.7551 125.664 18 126.48 16.5453C127.297 15.0907 128.433 13.9748 129.889 13.1969C131.344 12.4198 133.011 12.0312 134.896 12.0312ZM134.896 15.8679C133.943 15.8679 133.134 16.0871 132.467 16.5262C131.8 16.9653 131.297 17.6237 130.943 18.5012C130.589 19.3795 130.412 20.4824 130.412 21.8121C130.412 23.141 130.589 24.2446 130.943 25.1222C131.297 25.9998 131.8 26.6581 132.467 27.0972C133.134 27.5364 133.943 27.7556 134.896 27.7556C135.828 27.7556 136.624 27.5364 137.291 27.0972C137.95 26.6581 138.461 25.9998 138.814 25.1222C139.168 24.2446 139.338 23.141 139.338 21.8121C139.338 20.4824 139.168 19.3795 138.814 18.5012C138.461 17.6237 137.95 16.9653 137.291 16.5262C136.624 16.0871 135.828 15.8679 134.896 15.8679Z" fill="#63C1BF"/>
<path d="M159.938 31.5921C158.788 31.5921 157.741 31.3476 156.795 30.8587C155.856 30.3697 155.074 29.6922 154.461 28.8276C153.842 27.9624 153.427 26.9906 153.203 25.9122L153.727 25.2348L153.427 31.2165H148.869V4.16852H154.026V17.7109L153.536 16.9215C153.938 15.5167 154.706 14.3503 155.836 13.4229C156.965 12.4948 158.387 12.0311 160.095 12.0311C161.571 12.0311 162.918 12.4196 164.122 13.1968C165.326 13.9747 166.272 15.0906 166.966 16.5452C167.653 17.9998 168 19.7679 168 21.8495C168 23.8805 167.653 25.6233 166.966 27.078C166.272 28.5326 165.319 29.6485 164.102 30.4264C162.884 31.2036 161.496 31.5921 159.938 31.5921ZM158.394 27.6428C159.775 27.6428 160.863 27.147 161.653 26.1567C162.449 25.1658 162.843 23.7173 162.843 21.8119C162.843 19.9059 162.448 18.4574 161.673 17.4665C160.897 16.4762 159.816 15.9804 158.435 15.9804C157.53 15.9804 156.754 16.2188 156.101 16.6954C155.448 17.1721 154.938 17.8489 154.577 18.7271C154.21 19.6047 154.026 20.6455 154.026 21.8495C154.026 23.0781 154.21 24.125 154.577 24.9903C154.938 25.8555 155.455 26.5139 156.121 26.9653C156.781 27.4167 157.543 27.6428 158.394 27.6428Z" fill="#63C1BF"/>
</g>
<defs>
<filter id="filter0_d_1939_5696" x="0" y="0" width="174" height="36" filterUnits="userSpaceOnUse" color-interpolation-filters="sRGB">
<feFlood flood-opacity="0" result="BackgroundImageFix"/>
<feColorMatrix in="SourceAlpha" type="matrix" values="0 0 0 0 0 0 0 0 0 0 0 0 0 0 0 0 0 0 127 0" result="hardAlpha"/>
<feOffset dx="2"/>
<feGaussianBlur stdDeviation="2"/>
<feComposite in2="hardAlpha" operator="out"/>
<feColorMatrix type="matrix" values="0 0 0 0 0 0 0 0 0 0 0 0 0 0 0 0 0 0 0.25 0"/>
<feBlend mode="normal" in2="BackgroundImageFix" result="effect1_dropShadow_1939_5696"/>
<feBlend mode="normal" in="SourceGraphic" in2="effect1_dropShadow_1939_5696" result="shape"/>
</filter>
</defs>
</svg>
